<?xml version="1.0" encoding="UTF-8"?>
<!DOCTYPE svg PUBLIC "-//W3C//DTD SVG 1.1//EN" "http://www.w3.org/Graphics/SVG/1.1/DTD/svg11.dtd">
<svg version="1.1" xmlns="http://www.w3.org/2000/svg" xmlns:xlink="http://www.w3.org/1999/xlink" x="0" y="0" width="705" height="125" viewBox="0, 0, 705, 125">
  <g id="Background">
    <rect x="0" y="0" width="705" height="125" fill="#000000" fill-opacity="0"/>
  </g>
  <g id="Ebene_3">
    <path d="M19.817,3.049 L47.256,99.593 L47.764,99.593 L79.522,3.049 L96.799,3.049 L128.557,99.593 L129.065,99.593 L156.504,3.049 L176.321,3.049 L138.72,121.951 L119.919,121.951 L88.415,24.39 L87.907,24.39 L56.402,121.951 L37.602,121.951 L-0,3.049 z" fill="#845EC2"/>
    <path d="M290.889,53.354 Q290.889,36.331 280.727,25.788 Q270.564,15.244 252.271,15.244 Q244.141,15.244 236.519,18.42 Q228.897,21.596 223.181,26.931 Q217.464,32.266 214.035,39.126 Q210.605,45.986 210.605,53.354 z M210.097,67.073 Q210.859,75.965 214.416,83.841 Q217.973,91.717 223.816,97.434 Q229.66,103.15 237.281,106.453 Q244.903,109.756 253.796,109.756 Q267.261,109.756 277.043,103.532 Q286.824,97.307 291.905,89.177 L304.863,99.848 Q294.192,113.313 281.362,119.157 Q268.531,125 253.796,125 Q240.584,125 229.278,120.3 Q217.973,115.6 209.842,107.215 Q201.712,98.831 197.012,87.398 Q192.312,75.965 192.312,62.5 Q192.312,49.035 196.885,37.602 Q201.458,26.169 209.588,17.785 Q217.718,9.4 228.643,4.7 Q239.568,-0 252.271,-0 Q265.737,-0 276.408,4.827 Q287.078,9.654 294.319,17.658 Q301.56,25.661 305.371,36.458 Q309.182,47.256 309.182,59.451 L309.182,67.073 z" fill="#D65DB1"/>
    <path d="M407.251,62.754 Q400.899,62.754 391.372,63.389 Q381.845,64.024 373.079,66.438 Q364.314,68.852 358.089,73.933 Q351.865,79.014 351.865,87.907 Q351.865,93.75 354.278,97.942 Q356.692,102.134 360.757,104.802 Q364.822,107.47 369.776,108.613 Q374.731,109.756 379.812,109.756 Q388.958,109.756 395.691,106.707 Q402.424,103.659 406.997,98.45 Q411.57,93.242 413.73,86.255 Q415.889,79.268 415.889,71.392 L415.889,62.754 z M415.889,49.035 L415.889,45.986 Q415.889,15.244 385.401,15.244 Q364.568,15.244 349.07,29.217 L338.908,17.276 Q355.676,-0 389.212,-0 Q397.851,-0 405.854,2.541 Q413.857,5.081 419.7,10.29 Q425.544,15.498 429.101,23.374 Q432.658,31.25 432.658,42.175 L432.658,95.274 Q432.658,102.134 433.293,109.629 Q433.928,117.124 434.69,121.951 L418.43,121.951 Q417.668,117.632 417.287,112.551 Q416.905,107.47 416.905,102.642 L416.397,102.642 Q409.029,114.583 398.994,119.792 Q388.958,125 374.477,125 Q366.601,125 359.233,122.84 Q351.865,120.681 346.148,116.235 Q340.432,111.789 337.002,105.31 Q333.572,98.831 333.572,90.193 Q333.572,75.711 341.067,67.454 Q348.562,59.197 359.868,55.132 Q371.174,51.067 384.004,50.051 Q396.834,49.035 407.505,49.035 z" fill="#FF6F91"/>
    <path d="M523.867,121.951 L505.066,121.951 L456.794,3.049 L476.865,3.049 L514.721,103.15 L515.229,103.15 L553.084,3.049 L572.139,3.049 z" fill="#FF9671"/>
    <path d="M686.469,53.354 Q686.469,36.331 676.306,25.788 Q666.143,15.244 647.851,15.244 Q639.721,15.244 632.099,18.42 Q624.477,21.596 618.76,26.931 Q613.044,32.266 609.614,39.126 Q606.184,45.986 606.184,53.354 z M605.676,67.073 Q606.438,75.965 609.995,83.841 Q613.552,91.717 619.395,97.434 Q625.239,103.15 632.861,106.453 Q640.483,109.756 649.375,109.756 Q662.84,109.756 672.622,103.532 Q682.404,97.307 687.485,89.177 L700.442,99.848 Q689.771,113.313 676.941,119.157 Q664.111,125 649.375,125 Q636.164,125 624.858,120.3 Q613.552,115.6 605.422,107.215 Q597.292,98.831 592.591,87.398 Q587.891,75.965 587.891,62.5 Q587.891,49.035 592.464,37.602 Q597.038,26.169 605.168,17.785 Q613.298,9.4 624.223,4.7 Q635.147,-0 647.851,-0 Q661.316,-0 671.987,4.827 Q682.658,9.654 689.898,17.658 Q697.139,25.661 700.95,36.458 Q704.761,47.256 704.761,59.451 L704.761,67.073 z" fill="#FFC75F"/>
  </g>
</svg>
